<?xml version="1.0" encoding="utf-8"?>
<!-- Generator: Adobe Illustrator 19.1.0, SVG Export Plug-In . SVG Version: 6.00 Build 0)  -->
<svg version="1.1" id="Слой_1" xmlns="http://www.w3.org/2000/svg" xmlns:xlink="http://www.w3.org/1999/xlink" x="0px" y="0px"
	 viewBox="0 0 40 36.5" style="enable-background:new 0 0 40 36.5;" xml:space="preserve">
<g>
	<path d="M21.2,21.5l-3.5,12.4c0,0,4.1,2.6,7.2,2.6c2,0,4.3-0.5,7.2-1.7l3.4-12C33,23.7,30.7,24,28.9,24
		C24.8,24,22.3,22.4,21.2,21.5z"/>
	<path d="M3.5,19.2L0,31.6c2.7-1.1,4.8-1.5,6.7-1.5c3,0,5.1,1.2,7,2.5c0.7-2.5,3.2-11,3.7-12.6c-1.8-1.1-4-2.4-6.8-2.4
		C9,17.6,6.3,18,3.5,19.2z"/>
	<path d="M18,14.8c0.7-2.5,2.9-10,3.6-12.5v0C18.5,0.4,16.7,0,14.4,0c-1.8,0-3.9,0.5-6.6,1.6L4.4,14c2.2-0.9,4.5-1.6,6.9-1.6
		C14.1,12.4,16.1,13.5,18,14.8z"/>
	<path d="M33.2,6.5c-3.9,0-6.4-1.7-7.6-2.6L22,16.5c0,0,0,0,0,0c2,1.3,4.5,2.4,7.6,2.4c2,0,4.3-0.5,6.8-1.7c0,0,0,0,0,0c0,0,0,0,0,0
		L40,4.9C37.4,6.1,35.1,6.5,33.2,6.5z"/>
</g>
</svg>
